<svg xmlns="http://www.w3.org/2000/svg" viewBox="0 0 1200 780">
  <defs>
    <linearGradient id="wall" x1="0" y1="0" x2="0" y2="1"><stop stop-color="#f0e9dc"/><stop offset="1" stop-color="#d8cdbc"/></linearGradient>
    <linearGradient id="floor" x1="0" y1="0" x2="1" y2="1"><stop stop-color="#c69b72"/><stop offset="1" stop-color="#846044"/></linearGradient>
    <linearGradient id="sun" x1="0" y1="0" x2="1" y2="1"><stop stop-color="#fff"/><stop offset="1" stop-color="#cfe4df"/></linearGradient>
  </defs>
  <rect width="1200" height="780" fill="#d9d1c5"/>
  <polygon points="110,90 1090,90 1020,565 160,565" fill="url(#wall)"/>
  <polygon points="160,565 1020,565 1200,780 0,780" fill="url(#floor)"/>
  <rect x="670" y="135" width="285" height="250" rx="3" fill="#9d8b74"/>
  <rect x="687" y="152" width="251" height="215" fill="url(#sun)"/>
  <path d="M812 152v215M687 258h251" stroke="#8b7967" stroke-width="10"/>
  <rect x="190" y="340" width="420" height="210" rx="14" fill="#6e7d74"/>
  <rect x="210" y="305" width="380" height="85" rx="30" fill="#f4eee4"/>
  <rect x="230" y="325" width="140" height="55" rx="20" fill="#b9c4bd"/>
  <rect x="405" y="325" width="150" height="55" rx="20" fill="#d5b18f"/>
  <rect x="800" y="455" width="250" height="24" fill="#6a4c38"/>
  <rect x="825" y="479" width="18" height="135" fill="#6a4c38"/>
  <rect x="1015" y="479" width="18" height="135" fill="#6a4c38"/>
  <rect x="865" y="410" width="84" height="45" rx="3" fill="#efe9dc"/>
  <circle cx="115" cy="125" r="34" fill="#f0c866" opacity=".8"/>
  <path d="M0 685h1200" stroke="#755339" stroke-opacity=".25" stroke-width="3"/>
  <text x="55" y="730" fill="#fff" opacity=".75" font-family="Arial" font-size="26">Walkthrough reference · lighting may shift colors</text>
</svg>
